<svg xmlns="http://www.w3.org/2000/svg" xmlns:xlink="http://www.w3.org/1999/xlink" width="250" zoomAndPan="magnify" viewBox="0 0 187.5 37.5" height="50" preserveAspectRatio="xMidYMid meet" version="1.0"><defs><g/><clipPath id="91365472dc"><path d="M 174 14 L 186.019531 14 L 186.019531 34 L 174 34 Z M 174 14 " clip-rule="nonzero"/></clipPath><clipPath id="c7c84794b5"><path d="M 113.585938 9.175781 L 118.363281 9.175781 L 118.363281 13.203125 L 113.585938 13.203125 Z M 113.585938 9.175781 " clip-rule="nonzero"/></clipPath><clipPath id="d4398c0799"><path d="M 113.957031 9.871094 C 113.589844 10.476562 113.851562 11.066406 114.175781 11.378906 L 116.078125 13.203125 L 117.941406 11.386719 C 118.242188 11.050781 118.359375 10.691406 118.292969 10.292969 C 118.207031 9.746094 117.753906 9.316406 117.191406 9.257812 C 116.851562 9.21875 116.519531 9.316406 116.257812 9.53125 C 116.191406 9.589844 116.128906 9.65625 116.074219 9.726562 C 116.007812 9.644531 115.933594 9.570312 115.847656 9.507812 C 115.550781 9.28125 115.171875 9.191406 114.808594 9.261719 C 114.464844 9.328125 114.152344 9.550781 113.957031 9.871094 Z M 113.957031 9.871094 " clip-rule="nonzero"/></clipPath></defs><g fill="#000000" fill-opacity="1"><g transform="translate(0.872279, 26.858211)"><g><path d="M 4.414062 -17.609375 C 3.460938 -17.609375 3.132812 -18.074219 2.578125 -18.074219 C 2.011719 -18.074219 1.75 -17.824219 1.585938 -17.183594 L 0.742188 -13.144531 C 0.640625 -12.65625 0.816406 -12.339844 1.234375 -12.265625 C 1.621094 -12.175781 1.925781 -12.300781 2.125 -12.742188 C 3.421875 -15.648438 3.976562 -16.265625 5.320312 -16.265625 L 6.855469 -16.265625 L 6.855469 -2.136719 C 6.855469 -1.761719 6.628906 -1.523438 6.226562 -1.410156 L 5.507812 -1.246094 C 5.132812 -1.132812 4.96875 -0.90625 4.96875 -0.589844 C 4.96875 -0.226562 5.207031 0 5.75 0 L 11.863281 0 C 12.402344 0 12.640625 -0.226562 12.640625 -0.589844 C 12.640625 -0.90625 12.476562 -1.132812 12.101562 -1.246094 L 11.382812 -1.410156 C 10.980469 -1.523438 10.753906 -1.761719 10.753906 -2.136719 L 10.753906 -16.265625 L 12.289062 -16.265625 C 13.636719 -16.265625 14.1875 -15.648438 15.484375 -12.742188 C 15.6875 -12.300781 15.988281 -12.175781 16.378906 -12.265625 C 16.792969 -12.339844 16.96875 -12.65625 16.867188 -13.144531 L 16.027344 -17.183594 C 15.863281 -17.824219 15.597656 -18.074219 15.03125 -18.074219 C 14.476562 -18.074219 14.152344 -17.609375 13.195312 -17.609375 Z M 4.414062 -17.609375 "/></g></g></g><g fill="#000000" fill-opacity="1"><g transform="translate(18.481855, 26.858211)"><g><path d="M 5.960938 -17.886719 C 5.960938 -18.378906 5.6875 -18.703125 5.144531 -18.703125 C 4.792969 -18.703125 4.441406 -18.589844 3.800781 -18.367188 L 1.496094 -17.511719 C 1.03125 -17.332031 0.90625 -17.195312 0.90625 -16.90625 C 0.90625 -16.667969 1.03125 -16.515625 1.332031 -16.441406 L 2 -16.390625 C 2.289062 -16.339844 2.414062 -16.175781 2.414062 -15.75 L 2.414062 -2.050781 C 2.414062 -1.507812 2.277344 -1.308594 1.960938 -1.207031 L 1.472656 -1.082031 C 1.144531 -0.957031 1.007812 -0.792969 1.007812 -0.527344 C 1.007812 -0.203125 1.21875 0 1.710938 0 L 6.554688 0 C 7.058594 0 7.269531 -0.203125 7.269531 -0.566406 C 7.269531 -0.816406 7.144531 -0.96875 6.867188 -1.082031 L 6.414062 -1.207031 C 6.113281 -1.320312 5.960938 -1.507812 5.960938 -2.050781 L 5.960938 -8.878906 L 6.089844 -8.980469 C 6.980469 -9.734375 7.847656 -10.089844 8.605469 -10.089844 C 9.8125 -10.089844 10.589844 -9.359375 10.589844 -7.886719 L 10.589844 -2.089844 C 10.589844 -1.535156 10.453125 -1.320312 10.125 -1.207031 L 9.648438 -1.082031 C 9.382812 -0.96875 9.257812 -0.816406 9.257812 -0.566406 C 9.257812 -0.203125 9.472656 0 9.976562 0 L 14.832031 0 C 15.320312 0 15.535156 -0.203125 15.535156 -0.527344 C 15.535156 -0.792969 15.398438 -0.957031 15.058594 -1.082031 L 14.617188 -1.207031 C 14.300781 -1.308594 14.140625 -1.523438 14.140625 -2.089844 L 14.140625 -8.402344 C 14.140625 -10.730469 12.691406 -12.226562 10.515625 -12.226562 C 9.21875 -12.226562 7.847656 -11.648438 5.960938 -10.011719 Z M 5.960938 -17.886719 "/></g></g></g><g fill="#000000" fill-opacity="1"><g transform="translate(34.707824, 26.858211)"><g><path d="M 12.589844 -7.460938 C 12.589844 -10.265625 10.628906 -12.226562 7.257812 -12.226562 C 3.296875 -12.226562 0.894531 -9.523438 0.894531 -5.699219 C 0.894531 -2.074219 3.496094 0.316406 7.15625 0.316406 C 10.265625 0.316406 12.464844 -1.484375 12.566406 -3.609375 C 12.578125 -3.960938 12.464844 -4.238281 12.1875 -4.238281 C 12 -4.238281 11.847656 -4.136719 11.546875 -3.8125 C 10.917969 -2.742188 9.761719 -2.125 8.289062 -2.125 C 6.023438 -2.125 4.464844 -3.433594 4.164062 -6.039062 L 11.070312 -6.039062 C 12.050781 -6.039062 12.589844 -6.554688 12.589844 -7.460938 Z M 6.792969 -10.957031 C 8.152344 -10.957031 9.019531 -9.800781 9.019531 -7.609375 C 9.019531 -7.195312 8.804688 -7.019531 8.363281 -7.019531 L 4.113281 -7.019531 C 4.113281 -9.484375 5.21875 -10.957031 6.792969 -10.957031 Z M 6.792969 -10.957031 "/></g></g></g><g fill="#000000" fill-opacity="1"><g transform="translate(48.179147, 26.858211)"><g><path d="M 5.761719 -11.347656 C 5.6875 -11.9375 5.507812 -12.164062 5.144531 -12.164062 C 4.90625 -12.164062 4.589844 -12.101562 3.75 -11.773438 L 1.496094 -10.945312 C 1.042969 -10.78125 0.90625 -10.628906 0.90625 -10.339844 C 0.90625 -10.101562 1.03125 -9.949219 1.332031 -9.875 L 2 -9.824219 C 2.289062 -9.773438 2.414062 -9.609375 2.414062 -9.183594 L 2.414062 -2.050781 C 2.414062 -1.507812 2.277344 -1.308594 1.960938 -1.207031 L 1.472656 -1.082031 C 1.144531 -0.957031 1.007812 -0.792969 1.007812 -0.527344 C 1.007812 -0.203125 1.21875 0 1.710938 0 L 7.585938 0 C 8.050781 0 8.300781 -0.203125 8.300781 -0.539062 C 8.300781 -0.867188 8.113281 -1.042969 7.710938 -1.121094 L 6.640625 -1.28125 C 6.113281 -1.371094 5.960938 -1.574219 5.960938 -2.050781 L 5.960938 -6.742188 C 5.960938 -9.058594 6.84375 -10.101562 7.75 -10.101562 C 8.277344 -10.101562 8.503906 -9.847656 8.503906 -9.320312 L 8.503906 -8.855469 C 8.503906 -7.898438 9.042969 -7.332031 10.050781 -7.332031 C 11.042969 -7.332031 11.722656 -8.074219 11.722656 -9.585938 C 11.722656 -11.296875 10.816406 -12.226562 9.207031 -12.226562 C 7.824219 -12.226562 6.527344 -11.269531 5.898438 -9.382812 Z M 5.761719 -11.347656 "/></g></g></g><g fill="#000000" fill-opacity="1"><g transform="translate(60.27944, 26.858211)"><g><path d="M 1.09375 -2.640625 C 1.09375 -0.878906 2.605469 0.316406 4.804688 0.316406 C 6.300781 0.316406 7.734375 -0.226562 8.703125 -1.207031 C 8.90625 -0.25 9.824219 0.316406 11.144531 0.316406 C 12.882812 0.316406 13.785156 -0.816406 13.785156 -1.671875 C 13.785156 -1.925781 13.6875 -2.101562 13.484375 -2.101562 C 13.332031 -2.101562 13.234375 -2 13.144531 -1.886719 C 13.007812 -1.722656 12.867188 -1.496094 12.492188 -1.496094 C 12.140625 -1.496094 11.9375 -1.734375 11.9375 -2.203125 L 11.9375 -8.742188 C 11.9375 -10.867188 10.453125 -12.214844 7.359375 -12.214844 C 3.621094 -12.214844 1.621094 -10.476562 1.621094 -8.894531 C 1.621094 -8.027344 2.164062 -7.496094 3.21875 -7.496094 C 4.441406 -7.496094 5.15625 -8.0625 5.15625 -9.082031 L 5.15625 -10.1875 C 5.15625 -10.792969 5.710938 -11.285156 6.703125 -11.285156 C 7.785156 -11.285156 8.429688 -10.605469 8.429688 -9.421875 L 8.429688 -5.886719 C 7.875 -6.050781 7.207031 -6.152344 6.441406 -6.152344 C 3.070312 -6.152344 1.09375 -4.730469 1.09375 -2.640625 Z M 4.71875 -3.234375 C 4.71875 -4.492188 5.546875 -5.246094 6.945312 -5.246094 C 7.484375 -5.246094 7.960938 -5.144531 8.429688 -4.96875 L 8.429688 -2 C 7.886719 -1.558594 7.207031 -1.296875 6.515625 -1.296875 C 5.460938 -1.296875 4.71875 -1.976562 4.71875 -3.234375 Z M 4.71875 -3.234375 "/></g></g></g><g fill="#000000" fill-opacity="1"><g transform="translate(74.455155, 26.858211)"><g><path d="M 5.660156 -11.347656 C 5.660156 -11.835938 5.382812 -12.164062 4.804688 -12.164062 C 4.492188 -12.164062 4.125 -12.074219 3.496094 -11.824219 L 1.347656 -10.96875 C 0.878906 -10.78125 0.753906 -10.65625 0.753906 -10.378906 C 0.753906 -10.125 0.878906 -9.976562 1.183594 -9.914062 L 1.847656 -9.863281 C 2.136719 -9.800781 2.265625 -9.648438 2.265625 -9.207031 L 2.265625 3.8125 C 2.265625 4.351562 2.125 4.554688 1.8125 4.652344 L 1.320312 4.78125 C 0.992188 4.90625 0.855469 5.070312 0.855469 5.332031 C 0.855469 5.660156 1.070312 5.863281 1.558594 5.863281 L 6.703125 5.863281 C 7.183594 5.863281 7.410156 5.660156 7.410156 5.332031 C 7.410156 5.070312 7.269531 4.894531 6.929688 4.78125 L 6.265625 4.640625 C 5.960938 4.566406 5.8125 4.351562 5.8125 3.8125 L 5.8125 -0.640625 C 6.667969 -0.0117188 7.6875 0.316406 8.855469 0.316406 C 12.25 0.316406 14.90625 -2.265625 14.90625 -6.277344 C 14.90625 -9.761719 12.703125 -12.226562 9.722656 -12.226562 C 8.164062 -12.226562 6.804688 -11.558594 5.660156 -10.378906 Z M 8.277344 -10.414062 C 9.960938 -10.414062 11.207031 -8.957031 11.207031 -5.898438 C 11.207031 -2.628906 9.925781 -1.144531 8.214844 -1.144531 C 7.320312 -1.144531 6.515625 -1.507812 5.8125 -2.265625 L 5.8125 -9.195312 C 6.542969 -10.011719 7.371094 -10.414062 8.277344 -10.414062 Z M 8.277344 -10.414062 "/></g></g></g><g fill="#000000" fill-opacity="1"><g transform="translate(90.253465, 26.858211)"><g><path d="M 6.378906 1.988281 C 5.523438 4 5.070312 4.351562 4.464844 4.351562 C 4.074219 4.351562 3.75 4.0625 3.609375 3.460938 L 3.445312 2.980469 C 3.15625 2.113281 2.753906 1.546875 1.898438 1.546875 C 1.007812 1.546875 0.441406 2.203125 0.441406 3.28125 C 0.441406 4.804688 1.660156 5.988281 3.621094 5.988281 C 5.585938 5.988281 6.527344 5.121094 7.9375 1.6875 L 12.429688 -9.371094 C 12.804688 -10.316406 13.121094 -10.605469 13.863281 -10.84375 C 14.226562 -10.980469 14.363281 -11.15625 14.363281 -11.398438 C 14.363281 -11.734375 14.101562 -11.9375 13.671875 -11.9375 L 10.089844 -11.9375 C 9.671875 -11.9375 9.410156 -11.734375 9.410156 -11.398438 C 9.410156 -11.121094 9.574219 -10.929688 9.949219 -10.832031 L 10.453125 -10.71875 C 11.234375 -10.542969 11.332031 -10.140625 10.929688 -9.132812 L 8.378906 -2.730469 L 5.648438 -9.285156 C 5.21875 -10.289062 5.332031 -10.605469 6.113281 -10.78125 L 6.566406 -10.867188 C 6.945312 -10.957031 7.09375 -11.132812 7.09375 -11.398438 C 7.09375 -11.734375 6.832031 -11.9375 6.414062 -11.9375 L 0.78125 -11.9375 C 0.363281 -11.9375 0.101562 -11.734375 0.101562 -11.398438 C 0.101562 -11.121094 0.214844 -10.96875 0.539062 -10.855469 C 1.195312 -10.679688 1.410156 -10.515625 1.699219 -9.863281 L 6.691406 1.195312 Z M 6.378906 1.988281 "/></g></g></g><g fill="#000000" fill-opacity="1"><g transform="translate(104.683027, 26.858211)"><g><path d="M 2.175781 -10.980469 C 2.628906 -10.878906 2.765625 -10.667969 2.765625 -10.300781 L 2.765625 -2.074219 C 2.765625 -0.605469 3.699219 0.125 4.96875 0.125 C 6.074219 0.125 6.855469 -0.527344 6.855469 -0.90625 C 6.855469 -1.03125 6.792969 -1.121094 6.667969 -1.121094 C 6.316406 -1.121094 6.316406 -0.441406 5.09375 -0.441406 C 4.203125 -0.441406 3.648438 -1.042969 3.648438 -2.152344 L 3.648438 -11.15625 L 6.226562 -11.15625 C 6.566406 -11.15625 6.753906 -11.269531 6.753906 -11.433594 C 6.753906 -11.585938 6.652344 -11.648438 6.429688 -11.648438 L 3.648438 -11.648438 L 3.648438 -13.898438 C 3.648438 -14.050781 3.558594 -14.152344 3.394531 -14.152344 C 3.234375 -14.152344 3.132812 -14.050781 3.082031 -13.761719 L 2.792969 -12.101562 C 2.730469 -11.75 2.453125 -11.648438 1.925781 -11.648438 L 1.054688 -11.648438 C 0.867188 -11.648438 0.78125 -11.585938 0.78125 -11.472656 C 0.78125 -11.347656 0.867188 -11.257812 1.347656 -11.15625 Z M 2.175781 -10.980469 "/></g></g></g><g fill="#000000" fill-opacity="1"><g transform="translate(112.607337, 26.858211)"><g><path d="M 3.359375 -14.832031 C 3.949219 -14.832031 4.414062 -15.308594 4.414062 -15.886719 C 4.414062 -16.453125 3.949219 -16.945312 3.359375 -16.945312 C 2.792969 -16.945312 2.328125 -16.464844 2.328125 -15.886719 C 2.328125 -15.308594 2.792969 -14.832031 3.359375 -14.832031 Z M 4.089844 -11.308594 C 4.089844 -11.558594 3.988281 -11.660156 3.773438 -11.660156 C 3.648438 -11.660156 3.445312 -11.621094 3.132812 -11.523438 L 1.546875 -11.019531 C 1.308594 -10.945312 1.234375 -10.867188 1.234375 -10.769531 C 1.234375 -10.667969 1.320312 -10.605469 1.574219 -10.605469 L 2.804688 -10.605469 C 3.105469 -10.605469 3.207031 -10.464844 3.207031 -10.1875 L 3.207031 -1.15625 C 3.207031 -0.84375 2.980469 -0.652344 2.589844 -0.578125 L 1.785156 -0.441406 C 1.546875 -0.402344 1.421875 -0.339844 1.421875 -0.203125 C 1.421875 -0.0742188 1.535156 0 1.734375 0 L 5.507812 0 C 5.722656 0 5.847656 -0.0742188 5.847656 -0.203125 C 5.847656 -0.351562 5.710938 -0.414062 5.460938 -0.453125 L 4.703125 -0.578125 C 4.316406 -0.640625 4.089844 -0.84375 4.089844 -1.167969 Z M 4.089844 -11.308594 "/></g></g></g><g fill="#000000" fill-opacity="1"><g transform="translate(119.399607, 26.858211)"><g><path d="M 3.710938 -11.308594 C 3.710938 -11.558594 3.609375 -11.660156 3.394531 -11.660156 C 3.257812 -11.660156 3.070312 -11.621094 2.753906 -11.523438 L 1.167969 -11.019531 C 0.929688 -10.945312 0.855469 -10.867188 0.855469 -10.769531 C 0.855469 -10.667969 0.945312 -10.605469 1.195312 -10.605469 L 2.429688 -10.605469 C 2.730469 -10.605469 2.832031 -10.464844 2.832031 -10.1875 L 2.832031 4.703125 C 2.832031 5.019531 2.605469 5.21875 2.214844 5.28125 L 1.410156 5.421875 C 1.167969 5.460938 1.042969 5.523438 1.042969 5.660156 C 1.042969 5.785156 1.15625 5.863281 1.359375 5.863281 L 5.621094 5.863281 C 5.835938 5.863281 5.960938 5.785156 5.960938 5.660156 C 5.960938 5.507812 5.824219 5.433594 5.574219 5.410156 L 4.328125 5.269531 C 3.9375 5.234375 3.710938 5.019531 3.710938 4.691406 L 3.710938 -1.648438 C 4.652344 -0.453125 6.050781 0.25 7.597656 0.25 C 10.589844 0.25 13.082031 -2.0625 13.082031 -5.960938 C 13.082031 -9.359375 10.929688 -11.824219 7.960938 -11.824219 C 6.390625 -11.824219 4.867188 -11.105469 3.710938 -9.8125 Z M 7.722656 -11.234375 C 10.238281 -11.234375 12.089844 -9.246094 12.089844 -5.8125 C 12.089844 -2.277344 10.089844 -0.339844 7.558594 -0.339844 C 6.089844 -0.339844 4.679688 -1.070312 3.710938 -2.351562 L 3.710938 -9.144531 C 4.855469 -10.503906 6.25 -11.234375 7.722656 -11.234375 Z M 7.722656 -11.234375 "/></g></g></g><g fill="#000000" fill-opacity="1"><g transform="translate(133.801722, 26.858211)"><g><path d="M 4.816406 -11.308594 C 6.351562 -11.308594 7.8125 -10.515625 8.617188 -8.628906 C 8.742188 -8.328125 8.855469 -8.203125 9.019531 -8.25 C 9.257812 -8.328125 9.183594 -8.628906 9.082031 -8.90625 L 8.136719 -11.648438 C 8.101562 -11.773438 8.039062 -11.824219 7.949219 -11.824219 C 7.648438 -11.824219 7.722656 -11.234375 7.246094 -11.234375 C 6.855469 -11.234375 6.226562 -11.824219 4.929688 -11.824219 C 2.84375 -11.824219 1.648438 -10.578125 1.648438 -8.945312 C 1.648438 -7.257812 2.605469 -6.25 5.296875 -5.484375 C 8 -4.71875 8.78125 -3.761719 8.78125 -2.554688 C 8.78125 -1.167969 7.835938 -0.265625 5.925781 -0.265625 C 4.351562 -0.265625 2.867188 -0.816406 1.785156 -3.144531 C 1.710938 -3.308594 1.574219 -3.410156 1.410156 -3.347656 C 1.21875 -3.269531 1.21875 -3.082031 1.296875 -2.894531 L 2.402344 0.0117188 C 2.476562 0.203125 2.554688 0.265625 2.667969 0.265625 C 2.992188 0.265625 2.957031 -0.265625 3.410156 -0.265625 C 3.910156 -0.265625 4.589844 0.25 5.925781 0.25 C 8.203125 0.25 9.558594 -1.019531 9.558594 -2.753906 C 9.558594 -4.25 8.527344 -5.507812 5.800781 -6.300781 C 3.207031 -7.058594 2.402344 -7.835938 2.402344 -9.09375 C 2.402344 -10.429688 3.382812 -11.308594 4.816406 -11.308594 Z M 4.816406 -11.308594 "/></g></g></g><g fill="#000000" fill-opacity="1"><g transform="translate(144.581296, 26.858211)"><g><path d="M 2.378906 0.125 C 3.007812 0.125 3.484375 -0.390625 3.484375 -0.992188 C 3.484375 -1.648438 3.007812 -2.125 2.378906 -2.125 C 1.773438 -2.125 1.257812 -1.648438 1.257812 -0.992188 C 1.257812 -0.390625 1.773438 0.125 2.378906 0.125 Z M 2.378906 0.125 "/></g></g></g><g fill="#000000" fill-opacity="1"><g transform="translate(149.3233, 26.858211)"><g><path d="M 7.058594 -11.8125 C 3.660156 -11.8125 1.320312 -9.308594 1.320312 -5.773438 C 1.320312 -2.265625 3.722656 0.25 7.042969 0.25 C 10.441406 0.25 12.78125 -2.25 12.78125 -5.785156 C 12.78125 -9.296875 10.378906 -11.8125 7.058594 -11.8125 Z M 7.925781 -0.363281 C 5.042969 0 2.816406 -1.796875 2.339844 -5.183594 C 1.886719 -8.429688 3.320312 -10.84375 6.175781 -11.195312 C 9.058594 -11.558594 11.285156 -9.761719 11.761719 -6.378906 C 12.214844 -3.121094 10.78125 -0.71875 7.925781 -0.363281 Z M 7.925781 -0.363281 "/></g></g></g><g fill="#000000" fill-opacity="1"><g transform="translate(163.42354, 26.858211)"><g><path d="M 4.089844 -11.308594 C 4.089844 -11.558594 3.988281 -11.660156 3.773438 -11.660156 C 3.636719 -11.660156 3.445312 -11.621094 3.132812 -11.523438 L 1.546875 -11.019531 C 1.308594 -10.945312 1.234375 -10.867188 1.234375 -10.769531 C 1.234375 -10.667969 1.320312 -10.605469 1.574219 -10.605469 L 2.804688 -10.605469 C 3.105469 -10.605469 3.207031 -10.464844 3.207031 -10.1875 L 3.207031 -1.15625 C 3.207031 -0.84375 2.980469 -0.640625 2.589844 -0.578125 L 1.785156 -0.441406 C 1.546875 -0.402344 1.421875 -0.339844 1.421875 -0.203125 C 1.421875 -0.0742188 1.535156 0 1.734375 0 L 6 0 C 6.214844 0 6.339844 -0.0742188 6.339844 -0.203125 C 6.339844 -0.351562 6.203125 -0.425781 5.949219 -0.453125 L 4.703125 -0.589844 C 4.316406 -0.628906 4.089844 -0.84375 4.089844 -1.167969 L 4.089844 -6.25 C 4.089844 -9.507812 5.734375 -11.246094 7.234375 -11.246094 C 8 -11.246094 8.300781 -10.945312 8.300781 -10.289062 L 8.300781 -9.925781 C 8.300781 -9.472656 8.578125 -9.207031 8.957031 -9.207031 C 9.320312 -9.207031 9.585938 -9.546875 9.585938 -10.011719 C 9.585938 -11.058594 8.765625 -11.824219 7.410156 -11.824219 C 6.074219 -11.824219 4.742188 -10.78125 4.089844 -8.945312 Z M 4.089844 -11.308594 "/></g></g></g><g clip-path="url(#91365472dc)"><g fill="#000000" fill-opacity="1"><g transform="translate(173.486156, 26.858211)"><g><path d="M 7.824219 -0.125 C 4.203125 -0.816406 3.898438 -1.347656 3.898438 -1.898438 C 3.898438 -2.25 4.0625 -2.539062 4.527344 -2.84375 C 5.058594 -2.652344 5.636719 -2.554688 6.238281 -2.554688 C 8.855469 -2.554688 10.992188 -4.464844 10.992188 -7.296875 C 10.992188 -8.605469 10.453125 -9.761719 9.574219 -10.578125 C 10.175781 -11.433594 10.527344 -11.597656 10.878906 -11.597656 C 11.445312 -11.597656 11.546875 -10.742188 12.089844 -10.742188 C 12.441406 -10.742188 12.640625 -10.992188 12.640625 -11.398438 C 12.640625 -11.949219 12.152344 -12.363281 11.421875 -12.363281 C 10.691406 -12.363281 10 -11.886719 9.410156 -11.058594 L 9.257812 -10.84375 C 8.453125 -11.460938 7.421875 -11.824219 6.277344 -11.824219 C 3.660156 -11.824219 1.523438 -9.914062 1.523438 -7.082031 C 1.523438 -5.269531 2.554688 -3.761719 4.101562 -3.019531 C 3.359375 -2.578125 3.121094 -2.0625 3.121094 -1.597656 C 3.121094 -1.042969 3.382812 -0.589844 4.578125 -0.152344 C 2 0.476562 1.019531 1.722656 1.019531 3.019531 C 1.019531 4.753906 2.765625 6.164062 6.542969 6.164062 C 9.988281 6.164062 11.960938 4.84375 11.960938 2.96875 C 11.960938 1.535156 11.03125 0.492188 7.824219 -0.125 Z M 6.101562 -11.296875 C 8.453125 -11.296875 10.027344 -9.496094 10.027344 -6.96875 C 10.027344 -4.578125 8.679688 -3.082031 6.414062 -3.082031 C 4.0625 -3.082031 2.492188 -4.878906 2.492188 -7.410156 C 2.492188 -9.800781 3.824219 -11.296875 6.101562 -11.296875 Z M 1.847656 2.945312 C 1.847656 1.671875 3.03125 0.554688 5.371094 0.101562 C 5.914062 0.25 6.578125 0.402344 7.394531 0.566406 C 10.429688 1.15625 11.132812 2.011719 11.132812 3.082031 C 11.132812 4.652344 9.546875 5.671875 6.628906 5.671875 C 3.195312 5.671875 1.847656 4.515625 1.847656 2.945312 Z M 1.847656 2.945312 "/></g></g></g></g><g clip-path="url(#c7c84794b5)"><g clip-path="url(#d4398c0799)"><path fill="#2a5db0" d="M 113.777344 9.238281 L 118.3125 9.238281 L 118.3125 13.203125 L 113.777344 13.203125 Z M 113.777344 9.238281 " fill-opacity="1" fill-rule="nonzero"/></g></g></svg>